<?xml version="1.0" encoding="UTF-8" standalone="no"?>
<!-- Created with Inkscape (http://www.inkscape.org/) -->

<svg
   version="1.1"
   id="svg1"
   width="600"
   height="644"
   viewBox="0 0 600 644"
   xml:space="preserve"
   xmlns:xlink="http://www.w3.org/1999/xlink"
   xmlns="http://www.w3.org/2000/svg"
   xmlns:svg="http://www.w3.org/2000/svg"><g
     id="layer-MC0"
     transform="translate(-254.28127,-54.522854)"><path
       id="path1"
       d="m 0,0 v -106.307 c -0.076,1.765 -0.159,3.956 -0.259,6.529 -0.281,7.455 -0.603,18.159 -0.843,31.083 -0.122,6.463 -0.163,13.477 -0.132,20.894 0.034,7.42 0.148,15.233 0.346,23.288 C -0.688,-16.501 -0.391,-8.276 0,0"
       style="fill:#008fcf;fill-opacity:1;fill-rule:evenodd;stroke:none"
       transform="matrix(1.3333333,0,0,-1.3333333,528.10547,446.01067)" /><path
       id="path2"
       d="m 0,0 c 0,0 -11.368,-1.084 -27.997,-3.051 -8.313,-0.978 -17.78,-2.284 -27.663,-3.816 -9.887,-1.534 -20.143,-3.308 -30.062,-5.208 -9.917,-1.903 -19.49,-3.91 -28.164,-5.865 -8.674,-1.955 -16.494,-3.838 -22.939,-5.493 -12.887,-3.315 -21.078,-5.577 -21.078,-5.577 0,0 4.253,14.687 8.553,28.405 4.307,13.71 8.613,26.494 8.613,26.494 1.873,5.275 4.938,10.568 8.886,15.606 3.943,5.04 8.774,9.822 14.191,14.097 5.417,4.277 11.467,8.078 17.875,11.186 6.403,3.114 13.172,5.542 20.009,7.088 0,0 9.15,1.808 18.348,3.567 9.201,1.761 18.449,3.476 18.449,3.476 7.436,1.16 14.389,1.32 20.649,0.594 6.255,-0.725 11.808,-2.334 16.435,-4.727 9.248,-4.779 14.524,-12.773 13.05,-22.785 0,0 -1.726,-12.329 -3.522,-25.804 C 1.845,14.719 0,0 0,0 m -39.481,93.143 c 0,0 -9.017,-1.645 -18.004,-3.335 -8.979,-1.689 -17.92,-3.427 -17.92,-3.427 -9.424,-2.105 -18.706,-5.383 -27.432,-9.596 -8.722,-4.214 -16.951,-9.384 -24.331,-15.229 -7.374,-5.846 -13.972,-12.424 -19.403,-19.413 -5.434,-6.992 -9.722,-14.423 -12.439,-21.883 0,0 -1.467,-4.19 -3.657,-10.696 -2.186,-6.502 -5.096,-15.384 -7.987,-24.715 -2.89,-9.33 -5.727,-19.154 -7.821,-26.714 -2.093,-7.565 -3.468,-12.77 -3.468,-12.77 0,0 9.966,2.862 25.931,7.122 7.986,2.129 17.858,4.565 28.971,7.113 5.552,1.271 11.455,2.554 17.603,3.83 6.158,1.272 12.558,2.534 19.12,3.753 6.567,1.219 13.289,2.388 20.047,3.486 6.76,1.1 13.553,2.124 20.258,3.055 6.71,0.933 13.301,1.776 19.647,2.517 6.338,0.74 12.432,1.376 18.148,1.9 11.43,1.04 21.064,1.795 27.845,2.286 6.784,0.485 10.698,0.721 10.698,0.721 0,0 0.391,5.417 0.974,13.187 0.581,7.767 1.348,17.708 2.108,26.961 0.754,9.258 1.492,17.92 2.038,24.204 0.547,6.281 0.9,10.286 0.9,10.286 0.652,7.036 -1.1,13.354 -4.684,18.687 -3.583,5.334 -8.931,9.725 -15.548,12.996 -6.615,3.277 -14.447,5.482 -23.14,6.472 -8.691,0.991 -18.258,0.765 -28.454,-0.798"
       style="fill:#c7c7c6;fill-opacity:1;fill-rule:evenodd;stroke:none"
       transform="matrix(1.3333333,0,0,-1.3333333,659.37427,180.574)" /><path
       id="path3"
       d="m 0,0 c 0,0 -2.398,-7.162 -5.941,-18.385 -1.769,-5.605 -3.79,-12.374 -5.912,-19.846 -2.119,-7.474 -4.324,-15.689 -6.443,-24.178 -2.122,-8.483 -4.148,-17.237 -5.948,-25.654 -1.798,-8.417 -3.386,-16.47 -4.646,-23.551 -2.51,-14.151 -4.012,-23.857 -4.012,-23.857 0,0 -10.996,-2.612 -21.211,-5.119 -10.215,-2.509 -19.713,-4.917 -19.713,-4.917 -7.713,-2.019 -13.577,1.91 -16.787,9.486 -3.212,7.577 -3.869,18.631 -1.338,31.574 l 7.389,32.011 c 1.571,5.955 3.835,11.906 6.626,17.582 2.786,5.675 6.103,11.085 9.763,15.958 7.338,9.756 16.132,17.597 24.559,21.316 0,0 10.26,4.339 21.158,8.744 C -11.563,-4.438 0,0 0,0 m -94.668,-76.888 -7.079,-31.362 c -1.724,-8.897 -2.362,-17.176 -2.005,-24.613 0.362,-7.439 1.701,-14.044 3.948,-19.552 4.491,-11.014 12.606,-17.153 23.256,-14.915 0,0 12.311,2.527 26.254,5.229 13.937,2.704 29.76,5.575 29.76,5.575 0,0 1.656,13.402 4.638,32.88 1.488,9.737 3.464,20.73 5.774,32.117 1.152,5.698 2.391,11.472 3.688,17.217 1.31,5.75 2.67,11.48 4.074,17.077 2.807,11.206 5.734,21.914 8.563,31.521 2.824,9.61 5.521,18.19 7.864,25.173 4.684,13.977 7.827,22.769 7.827,22.769 0,0 -16.446,-5.963 -31.399,-11.911 -14.944,-5.945 -28.509,-11.791 -28.509,-11.791 -6.003,-2.683 -12.101,-6.729 -17.925,-11.748 -5.827,-5.022 -11.398,-11.042 -16.42,-17.699 -5.027,-6.658 -9.556,-14.03 -13.334,-21.785 -3.789,-7.755 -6.848,-15.939 -8.975,-24.182"
       style="fill:#c7c7c6;fill-opacity:1;fill-rule:evenodd;stroke:none"
       transform="matrix(1.3333333,0,0,-1.3333333,392.74467,191.36587)" /><path
       id="path4"
       d="m 0,0 c 0.617,-9.903 -0.24,-19.1 -2.252,-27.145 -2.015,-8.043 -5.182,-14.927 -9.194,-20.303 -4.007,-5.374 -8.831,-9.315 -14.234,-11.591 -5.393,-2.279 -11.365,-2.924 -17.699,-1.717 l -29.609,6.062 c -5.203,1.138 -10.255,3.822 -14.913,7.672 -4.655,3.853 -8.917,8.867 -12.548,14.682 -3.631,5.815 -6.651,12.446 -8.884,19.613 -2.231,7.167 -3.681,14.884 -4.198,22.864 0,0 -0.193,4.58 -0.407,11.464 -0.207,6.886 -0.419,16.077 -0.467,25.293 -0.045,9.212 0.074,18.415 0.217,25.31 0.141,6.899 0.288,11.492 0.288,11.492 0.005,0 5.379,0.462 13.97,1.188 4.296,0.36 9.558,0.794 15.475,1.267 5.91,0.474 12.513,0.991 19.478,1.521 6.969,0.529 14.348,1.067 21.608,1.584 7.269,0.517 14.394,0.998 20.844,1.419 12.898,0.843 22.075,1.405 22.075,1.405 0,0 -0.204,-5.736 -0.41,-14.368 C -1.064,69.081 -1.217,57.542 -1.159,45.986 -1.102,34.429 -0.841,22.916 -0.552,14.31 -0.259,5.71 -0.005,0 -0.005,0 Z m -124.584,105.418 c 0,0 -0.409,-5.819 -0.874,-14.591 -0.462,-8.767 -0.89,-20.513 -1.029,-32.306 -0.133,-11.794 0.025,-23.581 0.294,-32.398 0.266,-8.822 0.543,-14.686 0.543,-14.686 0.697,-10.88 2.657,-21.382 5.709,-31.136 3.048,-9.755 7.189,-18.827 12.187,-26.835 5.003,-8 10.903,-14.981 17.415,-20.463 6.515,-5.477 13.67,-9.45 21.061,-11.353 l 29.759,-7.155 c 8.958,-1.995 17.411,-1.489 25.173,1.295 7.767,2.779 14.794,7.948 20.699,15.267 5.91,7.318 10.617,16.892 13.644,28.286 1.514,5.702 2.61,11.87 3.221,18.406 0.612,6.545 0.736,13.458 0.308,20.642 0,0 -0.358,7.778 -0.734,19.534 -0.185,5.874 -0.329,12.758 -0.412,20.145 -0.076,7.39 -0.088,15.276 0,23.169 0.083,7.894 0.264,15.751 0.5,23.093 0.243,7.338 0.531,14.148 0.843,19.948 0.615,11.596 1.131,19.24 1.131,19.24 0,0 -12.967,-1.196 -30.961,-3.021 -9.001,-0.908 -18.761,-1.972 -28.557,-3.101 -9.793,-1.126 -19.568,-2.312 -28.673,-3.469 -9.103,-1.158 -17.585,-2.281 -25.037,-3.303 -7.465,-1.024 -14.002,-1.948 -19.24,-2.71 -10.484,-1.526 -16.975,-2.498 -16.97,-2.498"
       style="fill:#c7c7c6;fill-opacity:1;fill-rule:evenodd;stroke:none"
       transform="matrix(1.3333333,0,0,-1.3333333,458.34853,583.11773)" /><path
       id="path5"
       d="m 0,0 c -3.398,-0.247 -6.829,-0.35 -10.286,-0.3 0,0 -8.624,0.167 -21.342,0.486 -6.353,0.16 -13.668,0.371 -21.38,0.621 -7.71,0.255 -15.805,0.548 -23.737,0.874 -7.932,0.322 -15.672,0.668 -22.782,1.01 -7.11,0.338 -13.597,0.671 -19.028,0.967 -10.865,0.593 -17.86,1.007 -17.86,1.007 0,0 -0.084,1.686 -0.213,4.8 v 107.026 c 0.391,8.236 0.874,16.523 1.444,24.695 0.574,8.253 1.226,16.372 1.935,24.218 0.71,7.845 1.477,15.422 2.277,22.589 0.802,7.17 1.616,13.963 2.431,20.268 0.812,6.305 1.612,12.125 2.39,17.332 3.105,20.825 5.31,33.866 5.31,33.866 0,0 6.62,1.03 16.823,2.477 5.103,0.723 11.148,1.533 17.739,2.345 6.589,0.817 13.722,1.637 20.987,2.388 7.262,0.751 14.632,1.434 21.618,2.01 6.984,0.581 13.577,1.06 19.277,1.424 11.408,0.722 19.109,1.093 19.109,1.093 1.773,0.062 3.533,0.084 5.288,0.069 5.419,-0.04 10.739,-0.448 15.939,-1.2 6.877,-0.993 13.544,-2.595 19.947,-4.763 6.395,-2.168 12.529,-4.905 18.327,-8.162 5.803,-3.256 11.27,-7.036 16.33,-11.296 5.06,-4.255 9.71,-9 13.87,-14.184 4.155,-5.186 7.821,-10.808 10.908,-16.815 3.085,-6.005 5.583,-12.413 7.402,-19.151 1.817,-6.734 2.951,-13.801 3.306,-21.104 0,0 0.566,-13.813 1.057,-27.949 0.383,-10.952 0.716,-22.066 0.845,-26.514 v -8.782 C 107.714,105.626 107.076,99.997 106.038,94.483 104.597,86.811 102.373,79.369 99.452,72.245 96.525,65.116 92.899,58.318 88.644,51.942 84.389,45.56 79.515,39.61 74.095,34.17 68.678,28.731 62.733,23.818 56.347,19.52 49.958,15.225 43.139,11.542 35.974,8.568 28.807,5.586 21.311,3.31 13.57,1.805 9.122,0.946 4.588,0.338 0,0 m 0,246.133 c -2.152,0.09 -4.326,0.102 -6.524,0.03 0,0 -5.979,-0.286 -14.853,-0.797 -8.872,-0.512 -20.585,-1.303 -32.076,-2.25 -11.489,-0.953 -22.699,-2.046 -30.978,-2.932 -8.279,-0.88 -13.694,-1.509 -13.699,-1.514 0,0 -1.405,-10.862 -3.372,-27.971 -0.983,-8.553 -2.038,-18.935 -3.066,-30.414 -0.517,-5.738 -1.01,-11.769 -1.479,-17.986 -0.469,-6.222 -0.907,-12.625 -1.309,-19.121 -0.401,-6.498 -0.753,-13.065 -1.058,-19.589 -0.302,-6.527 -0.557,-13.001 -0.755,-19.318 -0.395,-12.632 -0.602,-24.537 -0.621,-34.781 -0.036,-20.489 0.188,-34.116 0.188,-34.116 h -0.002 c 0,0 5.738,-0.138 14.548,-0.329 8.815,-0.187 20.833,-0.424 33.241,-0.633 12.405,-0.212 25.144,-0.386 34.842,-0.505 9.694,-0.114 16.249,-0.178 16.249,-0.178 3.626,-0.022 7.205,0.183 10.724,0.612 7.808,0.952 15.32,2.988 22.375,5.959 10.239,4.315 19.501,10.607 27.266,18.383 7.775,7.781 14.028,17.012 18.29,27.194 4.267,10.179 6.543,21.28 6.41,32.839 0,0 -0.231,14.547 -0.508,28.808 -0.278,14.265 -0.592,28.192 -0.592,28.192 -0.284,10.439 -2.819,20.244 -7.113,28.961 -4.291,8.72 -10.298,16.385 -17.553,22.64 -7.258,6.255 -15.742,11.153 -25.045,14.379 -7.383,2.563 -15.282,4.089 -23.53,4.437"
       style="fill:#008fcf;fill-opacity:1;fill-rule:evenodd;stroke:none"
       transform="matrix(1.3333333,0,0,-1.3333333,710.29453,600.8556)" /><g
       transform="matrix(24.421905,0,0,24.421905,258.71902,-116.02274)"
       id="g6"
       style="display:none"><g
         stroke="#505050"
         id="g4"><path
           d="M 17.96122,7 A 5.9612203,6.0742435 0 0 1 12,13.074244 5.9612203,6.0742435 0 0 1 6.0387797,7 5.9612203,6.0742435 0 0 1 12,0.92575645 5.9612203,6.0742435 0 0 1 17.96122,7 Z"
           style="opacity:0.8;fill:#e6e6e6;stroke-width:0.752183;stroke-linecap:round;stroke-linejoin:round;stroke-dashoffset:7"
           transform="matrix(1.4003553,0,0,1.3742014,-1.673829,7.249508)"
           id="path2-9" /><path
           d="m 7.8260866,22.087644 c 0,2.086807 2.0869568,2.086807 2.0869568,2.086807 0,0 -7.3043482,7.303828 -7.3043482,7.303828 L 0.52173861,29.39147 Z"
           fill="#ffcc30"
           fill-rule="evenodd"
           stroke-linejoin="round"
           stroke-width="1.04344"
           id="path3-4" /><path
           d="m 6.2608692,23.652749 2.0869565,-2.086807 2.0869553,2.086807 -2.0869553,2.086809 z"
           fill-rule="evenodd"
           stroke-linejoin="round"
           stroke-width="1.04344"
           id="path4-8" /></g><path
         d="m 10.434781,12.175305 c 2.086957,-3.1302127 4.635391,-3.545545 6.260871,-2.08681 1.62548,1.458739 -2.086957,1.043405 -4.173914,3.130215 -2.086957,2.086806 0,6.260424 -2.086957,6.260424 -2.0869553,0 -2.0869553,-4.173618 0,-7.303829 z"
         fill="#fcffff"
         fill-rule="evenodd"
         opacity="0.7"
         id="path5-8" /><path
         d="M 2.0869561,28.86977 6.2608692,24.696152"
         opacity="0.5"
         stroke="#fcffff"
         stroke-linecap="round"
         stroke-linejoin="round"
         stroke-width="1.04344"
         id="path6" /></g><g
       transform="matrix(1.4053388,0,0,1.4053388,195.89738,-69.849623)"
       id="g8"><path
         d="m 248.406,543.063 c -13,0 -114.383,-223.976 -114.383,-281.924 0,-57.948 50.006,-104.924 111.692,-104.924 61.685,0 111.691,46.976 111.691,104.924 0,57.948 -99.566,281.924 -109,281.924 z"
         fill="#d11d00"
         id="path6-4"
         style="display:inline;fill:#d11d00;fill-opacity:1;stroke:#000000;stroke-width:6;stroke-dasharray:none;stroke-opacity:1" /><path
         d="m 245.979,345 c -41.82,0 -75.721,-33.901 -75.721,-75.721 0,-41.819 33.901,-75.72 75.721,-75.72 41.819,0 75.72,33.901 75.72,75.72 0,41.82 -33.901,75.721 -75.72,75.721 z"
         fill="#ffffff"
         id="path8"
         style="fill:#ffffff;fill-opacity:1" /></g></g></svg>
