<svg width="64" height="69" viewBox="0 0 64 69" fill="none" xmlns="http://www.w3.org/2000/svg">
<path fill-rule="evenodd" clip-rule="evenodd" d="M29.0176 41.4897V56.5134C29.0067 56.2635 28.9958 55.9542 28.9817 55.5903C28.9411 54.5361 28.8958 53.0242 28.8614 51.1983C28.8443 50.2846 28.8396 49.2929 28.8427 48.2448C28.8458 47.1968 28.8646 46.0926 28.8927 44.954C28.9208 43.8154 28.963 42.6596 29.0176 41.4897Z" fill="#0D92D2"/>
<path fill-rule="evenodd" clip-rule="evenodd" d="M37.3517 0.19538C37.3517 0.19538 36.0772 0.428099 34.8074 0.663942C33.5376 0.899784 32.274 1.14812 32.274 1.14812C30.9345 1.45126 29.6339 1.9061 28.3975 2.50383C27.1773 3.09423 26.0251 3.81592 24.9613 4.65608C23.9414 5.45863 23.0207 6.37987 22.2187 7.40029C21.4777 8.33421 20.885 9.37676 20.4616 10.4912C20.4616 10.4912 20.2539 11.0847 19.9446 12.0031C19.6354 12.9215 19.2246 14.1773 18.8169 15.4955C18.4093 16.8137 18.0063 18.2022 17.7111 19.2705C17.4159 20.3388 17.2207 21.076 17.2207 21.076C17.2207 21.076 18.6264 20.6715 20.8849 20.0686C22.0141 19.7688 23.4088 19.4236 24.9785 19.0644C25.7595 18.8847 26.5982 18.7036 27.4666 18.5224C28.335 18.3412 29.2409 18.1647 30.1686 17.9929C31.0964 17.8211 32.0429 17.6555 33.0018 17.4994C33.9608 17.3432 34.9167 17.1995 35.8648 17.0683C36.8128 16.9371 37.739 16.8168 38.6402 16.7122C39.5414 16.6075 40.3973 16.5185 41.2048 16.4435C42.8198 16.2967 44.1817 16.1905 45.1392 16.1202C46.0966 16.0499 46.651 16.0187 46.651 16.0187C46.651 16.0187 46.7073 15.2534 46.7901 14.1554C46.8728 13.0574 46.979 11.6564 47.0868 10.346C47.1946 9.03557 47.2977 7.81263 47.3758 6.92548C47.4538 6.03834 47.5023 5.47138 47.5023 5.47138C47.6002 4.54279 47.3679 3.60938 46.8463 2.83494C46.287 2.04166 45.5299 1.40845 44.6503 0.998182C43.6209 0.507202 42.5145 0.197572 41.3797 0.0829253C40.0406 -0.0573461 38.6887 -0.0195318 37.3595 0.19538H37.3517ZM42.9307 13.3588C42.9307 13.3588 41.3235 13.515 38.9744 13.7899C37.7984 13.9274 36.4614 14.1117 35.0698 14.3288C33.6781 14.5459 32.2225 14.7973 30.8215 15.0644C29.4205 15.3315 28.0663 15.6173 26.8418 15.8938C25.6173 16.1702 24.51 16.4357 23.5994 16.6747C21.7782 17.1432 20.6209 17.4556 20.6209 17.4556C20.6209 17.4556 21.2222 15.3799 21.8298 13.4416C22.4374 11.5033 23.0465 9.69312 23.0465 9.69312C23.343 8.89621 23.7648 8.15173 24.296 7.48776C24.8836 6.7472 25.5567 6.07876 26.3014 5.49637C27.084 4.88029 27.9308 4.35035 28.827 3.91576C29.7284 3.47451 30.6774 3.13807 31.6555 2.91304C31.6555 2.91304 32.9487 2.65845 34.2482 2.41011C35.5477 2.16178 36.8503 1.92437 36.8503 1.92437C37.8147 1.76558 38.7961 1.73773 39.7679 1.84159C40.5759 1.92216 41.3627 2.1481 42.0904 2.50851C43.3977 3.1848 44.1427 4.31403 43.9349 5.72909C43.9349 5.72909 43.6913 7.47058 43.4367 9.3745C43.1821 11.2784 42.9244 13.3588 42.9244 13.3588H42.9307Z" fill="#C7C6C6"/>
<path fill-rule="evenodd" clip-rule="evenodd" d="M1.2943 25.3662L0.293144 29.7926C0.0613867 30.9367 -0.0335131 32.1043 0.0104446 33.2709C0.039901 34.2187 0.228387 35.1547 0.568033 36.0401C1.20215 37.6019 2.34857 38.4641 3.84796 38.147C3.84796 38.147 5.58789 37.7909 7.55897 37.4083C9.53005 37.0256 11.7635 36.6273 11.7635 36.6273C11.7635 36.6273 11.9978 34.7328 12.4195 31.9808C12.6288 30.6048 12.9084 29.0507 13.2348 27.442C13.391 26.6376 13.5722 25.8207 13.7565 25.0086C13.9408 24.1964 14.1329 23.3874 14.3312 22.5955C14.728 21.0117 15.1419 19.4999 15.5417 18.141C15.9415 16.7822 16.3226 15.5717 16.6537 14.5846C17.3144 12.6089 17.7596 11.3672 17.7596 11.3672C17.7596 11.3672 15.4355 12.209 13.3223 13.0493C11.2091 13.8896 9.29265 14.7158 9.29265 14.7158C8.37362 15.1453 7.521 15.7044 6.76085 16.3761C5.90154 17.1252 5.1236 17.9629 4.43991 18.8751C3.71519 19.8388 3.08444 20.8696 2.5563 21.9536C2.02001 23.0473 1.59513 24.1922 1.28806 25.3709L1.2943 25.3662ZM14.6717 14.5019C14.6717 14.5019 14.3328 15.514 13.8314 17.0993C13.5815 17.8911 13.2957 18.8486 12.9958 19.9106C12.696 20.9727 12.3852 22.1269 12.0868 23.3264C11.7885 24.526 11.4996 25.763 11.245 26.9515C10.9904 28.1401 10.7671 29.2803 10.589 30.2799C10.2345 32.2806 10.022 33.652 10.022 33.652C10.022 33.652 8.46798 34.0096 7.01856 34.3689C5.56915 34.7281 4.23218 35.0639 4.23218 35.0639C3.13887 35.3482 2.31421 34.7937 1.86126 33.7223C1.40832 32.6508 1.31461 31.0905 1.67228 29.2616L2.71561 24.7321C2.9446 23.8747 3.25853 23.0423 3.65273 22.2472C4.04115 21.4541 4.50287 20.699 5.03186 19.9918C6.06894 18.6127 7.31063 17.5053 8.50234 16.979C8.50234 16.979 9.95176 16.3667 11.4918 15.7435C13.0318 15.1204 14.6655 14.4941 14.6655 14.4941L14.6717 14.5019Z" fill="#C7C6C6"/>
<path fill-rule="evenodd" clip-rule="evenodd" d="M48.3274 23.1203C48.0223 23.1068 47.7151 23.1068 47.4059 23.1203C47.4059 23.1203 46.5609 23.161 45.3067 23.2328C44.0525 23.3046 42.397 23.4171 40.7773 23.5452C39.1576 23.6732 37.5692 23.8357 36.4041 23.9606C35.2389 24.0856 34.4611 24.1699 34.4595 24.1699C34.458 24.1699 34.2612 25.7037 33.9832 28.1215C33.8442 29.3303 33.6958 30.7985 33.5505 32.4197C33.4771 33.2303 33.4084 34.0831 33.3412 34.9609C33.2741 35.8387 33.2132 36.7461 33.1569 37.6629C33.1007 38.5798 33.0507 39.5106 33.0007 40.4321C32.9508 41.3536 32.9227 42.2689 32.8945 43.1623C32.8383 44.9459 32.8086 46.6296 32.8071 48.0759C32.8071 50.9716 32.8336 52.8974 32.8336 52.8974C32.8336 52.8974 33.6458 52.9177 34.8906 52.9443C36.1354 52.9708 37.8332 53.0036 39.5872 53.0333C41.3411 53.063 43.1404 53.088 44.5102 53.1052L46.8077 53.1301C47.314 53.1331 47.82 53.1044 48.3227 53.0442C49.4103 52.9104 50.4742 52.6265 51.4839 52.2008C54.386 50.9737 56.6955 48.6636 57.922 45.7612C58.5386 44.2928 58.8469 42.7134 58.8278 41.1209C58.8278 41.1209 58.7951 39.0655 58.756 37.0491C58.717 35.0327 58.6717 33.0663 58.6717 33.0663C58.6365 31.6453 58.2939 30.2487 57.6674 28.9727C57.0641 27.7505 56.2205 26.6626 55.1871 25.774C54.1461 24.8799 52.9452 24.191 51.6479 23.7435C50.5761 23.3737 49.4557 23.1632 48.3227 23.1188L48.3274 23.1203ZM48.3274 57.9017C47.8463 57.936 47.3616 57.9501 46.8733 57.9438C46.8733 57.9438 45.655 57.9204 43.8573 57.8751C42.9608 57.8517 41.9268 57.822 40.8367 57.7876C39.7465 57.7533 38.6032 57.7096 37.4818 57.6643C36.3603 57.619 35.267 57.569 34.2627 57.5206C33.2585 57.4721 32.3416 57.4253 31.5748 57.3847C30.0394 57.3003 29.0508 57.2425 29.0508 57.2425C29.0508 57.2425 29.0383 57.0036 29.0195 56.5631V41.4395C29.0758 40.2759 29.1429 39.1045 29.2241 37.9503C29.3054 36.7961 29.3975 35.6356 29.4975 34.5283C29.5974 33.4209 29.7068 32.3416 29.8192 31.3358C29.9317 30.3299 30.0472 29.3616 30.1628 28.4713C30.2784 27.5811 30.3909 26.7533 30.5002 26.0223C30.9391 23.0797 31.2514 21.2367 31.2514 21.2367C31.2514 21.2367 32.1886 21.0915 33.6286 20.8869C34.3486 20.7838 35.203 20.6698 36.1354 20.5558C37.0679 20.4417 38.0737 20.323 39.103 20.2168C40.1323 20.1106 41.1693 20.0153 42.1564 19.9341C43.1435 19.8529 44.076 19.7779 44.8819 19.7326C46.4938 19.6296 47.5808 19.5765 47.5808 19.5765C47.8323 19.5671 48.0806 19.564 48.3289 19.5671C49.0827 19.5716 49.8352 19.628 50.5812 19.7358C51.5416 19.8741 52.4873 20.0999 53.4066 20.4105C54.3035 20.7145 55.1704 21.1009 55.9962 21.5647C56.8142 22.0222 57.5867 22.5567 58.3031 23.161C59.0204 23.7632 59.6769 24.4344 60.2632 25.1648C60.8555 25.903 61.3719 26.6989 61.8048 27.5404C62.2474 28.4035 62.5982 29.3108 62.8512 30.2472C63.1137 31.2214 63.2708 32.221 63.3198 33.2288C63.3198 33.2288 63.3994 35.1811 63.476 37.1788C63.5291 38.7266 63.5759 40.3025 63.5947 40.9272V42.1767C63.4744 45.1727 62.5255 48.0766 60.8536 50.5655C59.0315 53.2984 56.4399 55.4296 53.4066 56.6897C52.3863 57.1144 51.3256 57.4346 50.2407 57.6455C49.6085 57.7695 48.9697 57.8566 48.3274 57.9063V57.9017Z" fill="#0D92D2"/>
<path fill-rule="evenodd" clip-rule="evenodd" d="M4.02008 41.1244C4.02008 41.1244 3.96229 41.9475 3.89669 43.186C3.83109 44.4246 3.77018 46.0849 3.75143 47.7514C3.73269 49.4179 3.75143 51.0844 3.79204 52.3308C3.83265 53.5772 3.86857 54.405 3.86857 54.405C3.96153 55.8985 4.23261 57.3755 4.67606 58.8047C5.08609 60.1349 5.66339 61.4076 6.39412 62.5923C7.06011 63.678 7.89049 64.6538 8.85563 65.4849C9.71592 66.2348 10.7331 66.7829 11.8326 67.0889L16.0371 68.0994C17.216 68.3816 18.4513 68.3182 19.5951 67.9167C20.7507 67.4825 21.7629 66.7357 22.5189 65.7598C23.3545 64.7258 24.0198 63.3717 24.4478 61.7614C24.6714 60.9087 24.8235 60.0388 24.9023 59.1609C24.9917 58.1914 25.0064 57.2165 24.946 56.2448C24.946 56.2448 24.8961 55.1515 24.8429 53.4834C24.8164 52.6541 24.7961 51.6811 24.7836 50.6377C24.7711 49.5944 24.7711 48.4776 24.7836 47.3578C24.7961 46.2379 24.8211 45.1321 24.8554 44.095C24.8898 43.058 24.9304 42.0958 24.9741 41.2759C25.0616 39.6375 25.1303 38.5566 25.1303 38.5566C25.1303 38.5566 23.2983 38.7269 20.7571 38.9846C19.4857 39.1127 18.1019 39.2626 16.7212 39.4219C15.3405 39.5812 13.9567 39.7484 12.6697 39.9123C11.3827 40.0763 10.1848 40.2357 9.13208 40.3809C8.07938 40.5262 7.15319 40.6558 6.41286 40.7636C4.93221 40.9791 4.01383 41.1166 4.01539 41.1166L4.02008 41.1244ZM21.6255 56.0215C21.717 57.3086 21.6116 58.6021 21.3131 59.8574C21.073 60.89 20.6314 61.8651 20.0136 62.7266C19.5016 63.4428 18.8069 64.0086 18.002 64.365C17.2119 64.6938 16.3414 64.7782 15.503 64.6071L11.3187 63.7512C10.5377 63.5634 9.81306 63.1911 9.20549 62.6657C8.50714 62.0734 7.90813 61.3732 7.4312 60.5915C6.89865 59.7242 6.47877 58.7926 6.18171 57.8192C5.85642 56.7699 5.65718 55.6856 5.58819 54.5893C5.58819 54.5893 5.56008 53.9411 5.53041 52.9696C5.50073 51.9981 5.47106 50.6971 5.46481 49.3945C5.45856 48.0919 5.47418 46.7924 5.49448 45.8178C5.51479 44.8432 5.53509 44.1934 5.53509 44.1934L7.5093 44.0263C8.11686 43.9748 8.86032 43.9139 9.69592 43.8467C10.5315 43.7795 11.464 43.7077 12.4495 43.6327C13.435 43.5578 14.4799 43.4765 15.503 43.4078C16.526 43.3391 17.5334 43.2672 18.4486 43.2079C20.2713 43.0892 21.5724 43.0095 21.5724 43.0095C21.5724 43.0095 21.5427 43.8201 21.5146 45.04C21.4865 46.2598 21.4631 47.8904 21.4724 49.5225C21.4818 51.1547 21.5177 52.7837 21.5583 53.9989C21.5989 55.214 21.6349 56.0215 21.6349 56.0215H21.6255Z" fill="#C7C6C6"/>
</svg>
